<?xml version="1.0" encoding="UTF-8" standalone="no"?>
<!-- Created with Inkscape (http://www.inkscape.org/) -->

<svg
   xmlns:dc="http://purl.org/dc/elements/1.1/"
   xmlns:cc="http://creativecommons.org/ns#"
   xmlns:rdf="http://www.w3.org/1999/02/22-rdf-syntax-ns#"
   xmlns:svg="http://www.w3.org/2000/svg"
   xmlns="http://www.w3.org/2000/svg"
   xmlns:sodipodi="http://sodipodi.sourceforge.net/DTD/sodipodi-0.dtd"
   xmlns:inkscape="http://www.inkscape.org/namespaces/inkscape"
   height="64"
   width="64"
   version="1.1"
   id="svg8"
   sodipodi:docname="bitcoin.svg"
   inkscape:version="0.92.5 (2060ec1f9f, 2020-04-08)">
  <metadata
     id="metadata14">
    <rdf:RDF>
      <cc:Work
         rdf:about="">
        <dc:format>image/svg+xml</dc:format>
        <dc:type
           rdf:resource="http://purl.org/dc/dcmitype/StillImage" />
      </cc:Work>
    </rdf:RDF>
  </metadata>
  <defs
     id="defs12" />
  <sodipodi:namedview
     pagecolor="#ffffff"
     bordercolor="#666666"
     borderopacity="1"
     objecttolerance="10"
     gridtolerance="10"
     guidetolerance="10"
     inkscape:pageopacity="0"
     inkscape:pageshadow="2"
     inkscape:window-width="2156"
     inkscape:window-height="1311"
     id="namedview10"
     showgrid="false"
     inkscape:zoom="20.85965"
     inkscape:cx="48.934992"
     inkscape:cy="34.911243"
     inkscape:window-x="0"
     inkscape:window-y="1170"
     inkscape:window-maximized="0"
     inkscape:current-layer="g6" />
  <g
     transform="translate(0.00630876,-0.00301984)"
     id="g6">
    <path
       d="M 31.738281 0 C 17.491867 0.10716531 4.5673906 9.795625 0.96289062 24.261719 C -3.3131094 41.403719 7.1198125 58.767016 24.257812 63.041016 C 41.402812 67.316016 58.765062 56.883234 63.039062 39.740234 C 67.313063 22.596234 56.882281 5.2310313 39.738281 0.95703125 C 37.060156 0.28921875 34.376506 -0.019845428 31.738281 0 z M 30.685547 11.150391 L 34.195312 12.025391 L 32.785156 17.677734 C 33.727156 17.892734 34.674656 18.109844 35.597656 18.339844 L 36.998047 12.724609 L 40.509766 13.599609 L 39.072266 19.367188 C 43.505266 20.894188 46.746375 23.183406 46.109375 27.441406 C 45.648375 30.558406 43.920953 32.066703 41.626953 32.595703 C 44.776953 34.235703 46.378563 36.751328 44.851562 41.111328 C 42.956562 46.526328 38.45575 46.982609 32.46875 45.849609 L 31.015625 51.673828 L 27.503906 50.798828 L 28.9375 45.052734 C 28.0275 44.826734 27.098625 44.586172 26.140625 44.326172 L 24.701172 50.099609 L 21.193359 49.224609 L 22.646484 43.390625 C 21.826484 43.180625 20.994531 42.957141 20.144531 42.744141 L 15.576172 41.605469 L 17.318359 37.585938 C 17.318359 37.585938 19.906094 38.273656 19.871094 38.222656 C 20.865094 38.468656 21.304516 37.820672 21.478516 37.388672 L 23.775391 28.183594 C 23.904391 28.214594 24.029484 28.246391 24.146484 28.275391 C 24.006484 28.219391 23.87925 28.183203 23.78125 28.158203 L 25.419922 21.587891 C 25.462922 20.841891 25.205203 19.901875 23.783203 19.546875 C 23.838203 19.509875 21.232422 18.912109 21.232422 18.912109 L 22.167969 15.162109 L 27.009766 16.371094 L 27.005859 16.388672 C 27.733859 16.569672 28.484047 16.742016 29.248047 16.916016 L 30.685547 11.150391 z M 31.839844 21.824219 L 30.091797 28.835938 C 32.073797 29.329938 38.183828 31.344906 39.173828 27.378906 C 40.204828 23.241906 33.821844 22.318219 31.839844 21.824219 z M 29.208984 32.373047 L 27.28125 40.101562 C 29.66125 40.692562 37.002891 43.049453 38.087891 38.689453 C 39.221891 34.142453 31.588984 32.967047 29.208984 32.373047 z "
       transform="translate(-0.00630876,0.00301984)"
       id="path2" />
  </g>
</svg>
